# xmcd
#
# Track frame offsets:
#	150
#	13650
#	26204
#	41485
#	54682
#	67226
#	79358
#	93599
#	104456
#	116644
#	131485
#	142332
#	155804
#	168892
#	180630
#	193193
#	205700
#	220860
#	233545
#	245095
#	259889
#	270136
#
# Disc length: 3783 seconds
#
# Revision: 1
# Processed by: cddbd v1.5.2PL0 Copyright (c) Steve Scherf et al.
# Submitted via: audiograbber 1.83.01
#
DISCID=4b0ec516
DTITLE=Aretha Franklin - The complete 1956 - 1962 singles
DYEAR=2017
DGENRE=Soul
TTITLE0=Aretha Franklin - Never grow old
TTITLE1=Aretha Franklin - You grow closer
TTITLE2=Aretha Franklin - Precious Lord, part 1
TTITLE3=Aretha Franklin - Precious Lord, part 2
TTITLE4=Aretha Franklin - Today I sing the blues
TTITLE5=Aretha Franklin - Love is the only thing
TTITLE6=Aretha Franklin - Won't be long
TTITLE7=Aretha Franklin - Right now
TTITLE8=Aretha Franklin - Are you sure?
TTITLE9=Aretha Franklin - Maybe I'm a fool
TTITLE10=Aretha Franklin - Rock-a-bye your baby with a dixie melody
TTITLE11=Aretha Franklin - Operation heartbreak
TTITLE12=Aretha Franklin - It ain't necessarily so
TTITLE13=Aretha Franklin - Lover come back to me
TTITLE14=Aretha Franklin - Rough lover
TTITLE15=Aretha Franklin - I surrender. dear
TTITLE16=Aretha Franklin - Don't cry, baby
TTITLE17=Aretha Franklin - Without the one you love
TTITLE18=Aretha Franklin - Just for the thrill
TTITLE19=Aretha Franklin - Try a little tenderness
TTITLE20=Aretha Franklin - Trouble in mind
TTITLE21=Aretha Franklin - God bless the child
EXTD=
EXTT0=
EXTT1=
EXTT2=
EXTT3=
EXTT4=
EXTT5=
EXTT6=
EXTT7=
EXTT8=
EXTT9=
EXTT10=
EXTT11=
EXTT12=
EXTT13=
EXTT14=
EXTT15=
EXTT16=
EXTT17=
EXTT18=
EXTT19=
EXTT20=
EXTT21=
PLAYORDER=
